<svg xmlns="http://www.w3.org/2000/svg" viewBox="0 0 749.86 455.1" xmlns:v="https://vecta.io/nano"><path d="M0 0l42.34 20.44 93.49 47c.77.39 1.5.87 2.24 1.31 1.14 2.51-1.28 3.27-2.3 4.73-16.73 19.12-29.05 40.65-35.62 65.31-.55 2-.92 4.13-1.31 6.21l-1.75 8.79c-.58 6.25-1.8 12.43-1.65 18.76A3.38 3.38 0 0 1 93 176.2a542 542 0 0 0-88.19-21.76L0 153.7z" fill="#1f3759"/><path d="M660.55 323.28l13.06-.21q38.13 0 76.25.08v132h-.77c-1.53-1.84-1-4.05-1-6.13q0-58.83 0-117.66c0-6.33 0-6.33-6.16-6.33h-76.08c-1.85-.12-4.14.66-5.3-1.75z" fill="#8695aa"/><path d="M231 99c10.87.1 21.42 2.56 32 4.67a310 310 0 0 0 35.28 5.25c18.53 1.53 36.72-.5 54.85-3.56 27.44-4.64 53.65-13.81 80-22.32 16.21-5.23 32.42-10.56 49.2-13.63 21-3.86 42-5.06 62.45 3.15 19.81 8 35.72 20.53 45.73 39.84 6.84 13.18 10.33 27.31 12.53 41.91a177.67 177.67 0 0 1 2 29.7 284.71 284.71 0 0 1-11.34 74.49 378.46 378.46 0 0 1-13.21 37.62c-.68.57-1.29.15-1.9-.15a3.25 3.25 0 0 1-1-1.13c-1-2.21-3-3.53-4.54-5.3-4.63-7.83-11.18-13.5-19.14-17.84-6.54-3.57-11.61-9.11-16.25-14.75a54.08 54.08 0 0 0-11.37-10.59 35.43 35.43 0 0 1-11.09-11.94 21.17 21.17 0 0 0-7.28-7.38c-4.51-2.87-8.31-1.29-9.48 3.94-.55 2.46 0 5-.53 7.44a23.32 23.32 0 0 0 3.73 12.85 5.44 5.44 0 0 1 .95 1.91c1.11 4 4.09 6.59 7 9.27 5.24 5.84 10.12 12 15.2 17.95a10.38 10.38 0 0 1 2.77 7.14c-.09 3.65-1.16 5.28-4.67 6.23-14.55 4-29.23 3.73-44 1.23l-29.09-6.67a36.78 36.78 0 0 1-3.58-1.06c-6.68-2.45-13.78-3.26-20.56-5.25-6.34-1.86-12.86-2.57-19.27-3.9a22 22 0 0 0-14.39 1.46 8.76 8.76 0 0 0-3.49 13 12.8 12.8 0 0 0 4.61 4.28c1.36.73 3.61 1.47 2.86 3.32-.92 2.29-3.17 1.23-4.91.66-6.64-2.17-13.51-3.43-20.3-5s-12.08 1.89-13.93 8.64c-1.56 5.72 1.37 11.27 7.83 13.34 13.72 4.41 27.2 9.52 41 13.64 5.47 1.62 10.68 4.13 16.42 4.89a55 55 0 0 1 12.17 4.74c-.38 2.74-2.44 2.63-4.23 2.14-13.39-3.68-27-6.42-40.24-10.72-5-1.64-10-3.6-15.46-3.92a8.8 8.8 0 0 0-7.37 2.81 8.37 8.37 0 0 1-.79.89c-4.36 6.38-1.68 14.23 5.87 16.79q31 10.5 62.31 19.91c7.51 2.24 15.12 4.21 22.47 7 1.17.44 2.86.74 2.68 2.16-.22 1.76-2.1 1.52-3.37 1.41a115.1 115.1 0 0 1-11.8-1.93 39.08 39.08 0 0 0-9.63-1c-4.53-.29-8.91-1.52-13.39-2.18-5-.33-9.63-2.46-14.64-2.87-3.51-.28-6.71-.1-9.43 2.37-2.63 3.57-2.51 6.19.55 9.22 3.46 3.43 7.75 5.35 12.35 6.72 17.7 5.25 35.67 9.4 53.7 13.32 2.92.64 5.87 1.18 8.76 2 1.11.3 2.61.17 2.85 1.86l-27 5.6c-15.33 2.93-30.65 6-46.15 8l-38.31 5.08c-9.73 1.11-19.55 1.53-29.31 2.41-12.16 1.1-24.41.75-36.52 1.75-13.27 1.08-26.42 0-39.55-.5a281.44 281.44 0 0 1-64.65-9.55c-17.62-4.89-34.44-11.63-48.51-23.69-13-11.12-20.66-25.16-22.66-42.4-2.34-20.13 3-38.77 10.71-56.79a278.46 278.46 0 0 0 19.48-64.81c1.88-11.38 3-22.84 4.41-34.28 3.49-.68 4.3 2.83 6.51 4.15a97.22 97.22 0 0 1 15.93 23.47c.37 4.5-1.64 8.53-2.45 12.8a46.07 46.07 0 0 1-1.48 5.8c-.87 2.63.09 3.61 2.75 3.84 3.69.31 7.5.07 10.94 1.87a21.91 21.91 0 0 0 12.07 12c3.32 1.4 6.45 1.7 9.55-.4a17.49 17.49 0 0 1 .78-.72 6.6 6.6 0 0 0 2.18-4.9c.07-1.2 0-2.48 1.07-3.39 1.94-.82 3.73 0 5.55.48 1.44 1 1.64 2.68 2.36 4.07a21.59 21.59 0 0 0 7.21 7.71 19.72 19.72 0 0 0 3.1 1.83c4.83 2.87 9.62 3.95 14.32-.24.23-.25.48-.47.73-.7a5.84 5.84 0 0 0 2.09-3.83c.5-1.76-.07-3.72 1-5.36a2 2 0 0 1 2.59.31 26.07 26.07 0 0 0 14.51 14.2c6.43 3.92 15.83-.75 15.24-8.51a3 3 0 0 1 .87-2.39c2-1.16 3.8-.22 5.67.28a7.67 7.67 0 0 1 2.32 1.67c7 6.73 13.31 14.16 21 20.18 4.32 3.4 8.83 6.51 14.45 7.44a10 10 0 0 0 9.71-3.53c2.45-2.92 1.68-6.28.16-9.49A56.25 56.25 0 0 0 333 268c-.47-1-1.74-1.94-.26-3.09 3.74-1.23 7.43.09 11.08.48l36.73 3.93c2.92.34 4-.87 4.66-3.43q4.06-15.54 8.18-31.05a29 29 0 0 1 2-6.42c1.75-2.72 4.69-2.57 7.35-2.88 4.7-.57 5.3-1 4.86-5.43-.86-8.55-.93-17.18-2.55-25.65a14.64 14.64 0 0 1 .75-7c1.58-5.39 2.78-10.88 4.42-16.25.8-2.6-.07-3.44-2.73-3.82-9.91-1.39-8.8.83-13-9.75-3.4-8.58-7.52-16.86-13.35-24.15-3.85-4.81-8.44-7.78-14.94-5.93l-42.81 5.28a9.59 9.59 0 0 1-4.06-.13c-1.5-.52-2-1.88-2.71-3.11-3.94-3.94-8.84-4.6-14.07-4.13-12.11-5.93-24.9-10.2-37.31-15.4-9.85-4.13-20.52-5.25-30.54-8.69-1.4-.51-3.39-.24-3.7-2.38z" fill="#edf0f7"/><path d="M475.51 407.06l-35.24-8.17c-11.15-2.64-22.32-5.28-33.18-9a25 25 0 0 1-11-6.89c-2.62-2.94-2.53-6.51.19-9.66 6.52-3.84 13.13-1.59 19.7-.21a18.56 18.56 0 0 0 4.37.66c7 1.51 14.13 2.45 21.24 3.35 6.55 1.14 13.06 2.55 19.71 2.89a3.26 3.26 0 0 0 1.89-.23c-1.95-1.19-3.45-2.55-5.49-3.18l-49.81-15.24c-12.33-3.82-24.62-7.82-36.75-12.24-6.45-2.35-10.93-10.56-5.13-17.69v.05a1.68 1.68 0 0 1 1.07-.48c4.49-1.78 8.87-1.45 13.5 0 22.53 6.87 45.48 12.1 68.48 17.14a6.85 6.85 0 0 0 2.59.05c3.16 0 6 1.26 9.85 2.23-.33-.09-.77-.84-.74-.34a38.59 38.59 0 0 1-6-1.81c-3.42-1.9-7.23-2.72-10.92-3.83-6.45-2-12.58-4.74-18.89-7a18.47 18.47 0 0 0-4.39-.87c-10.53-2.84-20.79-6.53-31.09-10l-25.06-8.28c-4.22-1.49-7.14-4.26-7.89-9-.79-5 .46-9.08 4.77-12 5.57-1.45 10.88.3 16.24 1.35 12.62 2.49 24.86 6.35 37.07 10.32 6.17 2 12.5 3.44 18.74 5.2 7.64 2.51 15.5 4.26 23.22 6.48a7.64 7.64 0 0 0 3.64.47c3.1 0 6 1.26 9 1.57.38 0 1.1.25.8-.61-.11-.32-.51-.5-.81-.72-2.13-1.66-4.82-1.65-7.25-2.41a9.22 9.22 0 0 1-1-.24c-1.2-.43-2.47-.58-3.68-.93-4-1.42-8.25-2.16-12.37-3.28a7.56 7.56 0 0 1-1.05-.23c-3.12-.81-6-2.48-9.43-2.1-9.7-4.33-19.92-7.09-30.13-9.78-4.68-1.23-8.72-3.62-12.75-6-4.61-2.72-5.94-7.43-4.09-12.2 4.76-4.94 10.67-5.94 17.2-5.24 13.3 1.42 26.24 4.71 39.26 7.52 11 2.8 22 5.29 33.14 7.55.72.14 1.43.51 2.17.09 14.73 2.38 29.4 2.68 43.91-1.45 3.91-1.11 5-6.08 1.88-10.1-3.62-4.73-7.58-9.22-11.42-13.79-1.67-2-3.39-3.94-5.09-5.9-1.53-3.09-4.86-4.91-5.88-8.36-.07-1.95-1.22-3.33-2.46-4.67a34.88 34.88 0 0 1-3-11.52c.16-2.61-.26-5.24.42-7.82 1.58-6 6-7.65 11-4.17a22.68 22.68 0 0 1 7.45 7.73c3.49 6.48 9.23 10.65 15.1 14.68a9.79 9.79 0 0 1 2.63 2c7.58 10.81 17.7 18.69 28.81 25.57 5 3.14 8.52 8 11.23 13.24 1.18 2.1 3.58 3.2 4.47 5.52h.27v.27c2.39 2.53 5 4.8 7.2 7.57v-.08a30.44 30.44 0 0 0 5.84 6l.2.11-.06.21c.78 2.19 2.67 3.4 4.27 4.87 2.64 3.94 6.76 5.47 11.05 6.68 2.13.6 4.28 1.14 6.42 1.7 3.59 3.73 5 8.55 6.5 13.27 1.93 6 2.16 12.25 2.47 18.45.53 10.68.94 21.38-.29 32.05a42.87 42.87 0 0 1-5.18 15.49c-.85 1.58-1.62 3.13-.4 4.87l-.18.59a197.11 197.11 0 0 0-33.22-.91c-5 .36-10.1.68-14.64 2.75-12.26 5.6-25.11 4.6-37.92 3.86-10.57-.62-21.12-1.69-31.65-2.8-7.88-.75-15.65-1.94-23.43-2.97z" fill="#faa27c"/><path d="M748.35 455l-40.2-3.9-74.22-5.84c-2.63-.18-5.45.43-7.83-1.34a83 83 0 0 0 7.33-33.2 32.74 32.74 0 0 1 1.09-5.85c2.19-10 .29-19.86-.21-29.79-.32-6.35-1.09-12.66-1.61-19-.57-6.84-1.72-13.59-2.7-20.37-.43-3-.34-6-1.17-8.89-.62-2.15.72-2.92 2.69-2.92l28.11.1c1.86.05 3.73.26 5.6.26l79.48-.06c2.93 0 4.1.48 4.09 3.79l-.09 123.71c0 1.12.29 2.3-.36 3.3z" fill="#1f3759"/><path d="M163.38 202.51c-2.21-1.23-3.26-3.94-5.89-4.65-1-1.77-2.73-2.85-4.28-4.08-7.34-5.84-13.27-12.67-16.09-21.89-1.84-6-5.52-10.1-12.2-11.06a97.36 97.36 0 0 1-10.11-2.48c-6.19 0-11.8-2.5-17.62-4.11-.6-.17-.89-.82-1.09-1.43 1-2.66.7-5.65 2.06-8.23 1.36-1.42 3-1.51 4.77-1 7.34 2 14.73 3.92 22 6.21a19.78 19.78 0 0 1 12 10.65A139.28 139.28 0 0 0 160.5 195a24 24 0 0 1 3.5 4.85c.52.94 1.42 2.15-.62 2.66z" fill="#e56940"/><path d="M635.17 405.61c-1.14 11.44-1.61 23-5.95 33.88-.7 1.76-1.28 3.52-3.12 4.44-6.26-6.66-7.71-15.16-8.88-23.69-.59-4.31-.64-8.7-.93-13.05l.21-.08c1.72-1.52 3.76-1 5.69-.8s4 .25 5.92.6c3.27.6 5.2-.57 6.21-3.61 1.81.2 1.1 1.34.85 2.31z" fill="#231f20"/><path d="M635.17 405.61l-.49-2.23c-1.07-.63-.88-1.69-.84-2.66.28-5.7 0-11.4.14-17.11a12.2 12.2 0 0 0-.4-5.23c-1.19-14.83-2.7-29.62-4.79-44.36-.41-2.93-1.68-5.73-1.37-8.77 0-2.13 1.36-2.15 3-2.13l30.12.16c1.4.84 2.93.44 4.39.44q40.26.07 80.51.06c2.39 0 3.77.05 3.76 3.25q-.21 64-.12 128.05l-.74-.07q0-62.91.08-125.83c0-3.53-.83-4.63-4.5-4.61l-110.12.07c-4.4 0-4.1 0-3.47 4.19 1.29 8.7 2.11 17.46 3.32 26.16 1.55 11.19 1.76 22.49 2.81 33.72.54 5.64.54 11.38-1.29 16.9z" fill="#1e3047"/><path d="M96.1,152.81c5.14,2.12,10.66,2.93,15.94,4.58.93.3,1.85.64,2.77,1-5.13,4.67-9.27,10.25-14,15.25-2,2.1-4.15,5-7.81,2.6.54-1.09,1.6-1.93,1.49-3.34C94,166.09,95.52,159.49,96.1,152.81Z" fill="#2b2b2b"/><path d="M163.38 202.51c1.38-2.11-.7-3.13-1.6-4.26-3.85-4.87-8-9.52-11.88-14.33a87 87 0 0 1-11.57-19.08c-3.66-8.07-9.18-13.67-18.19-15.57-5.7-1.2-11.29-2.93-16.87-4.65a9.54 9.54 0 0 0-5.11 0c1.69-11.05 5.59-21.38 10.33-31.41a166.76 166.76 0 0 1 26.57-40.4c4.57-.71 8.22 1.59 11.94 3.68 14.44 5.07 28.46 11.42 43.82 13.61a278 278 0 0 1 34.69 7.63c1.79.5 3.63.86 5.44 1.28 3.78 1.2 7.47 2.83 11.34 3.53 16.81 3.07 32.16 10.33 47.9 16.44 3.25 1.27 6.43 2.7 9.71 3.85a4.72 4.72 0 0 1 3 2.58c4.13 3.79 9.32 3.26 14.31 3.53 1.09.77 1 2.15 1.56 3.16 1.2 1.5.57 2.93-.15 4.36a19 19 0 0 1-10.17 7.25 23.36 23.36 0 0 0-5.42 1.08 27.59 27.59 0 0 1-17.48-3c-5.89-3.32-11.71-2.78-17.73-1.81a58.51 58.51 0 0 1-6.71.54c-2.71-.16-5.42.32-8.14.05-4-.15-8.1-.05-12.16 0a41.92 41.92 0 0 1-7.59-.35 23.67 23.67 0 0 0-5.51-.38c-2.41-1-5.22-.43-7.57-1.74 2.3 1.25 5 .76 7.4 1.77a36.61 36.61 0 0 1 4.32.14c2.95.66 6 .36 9 .94-.62 2.38-2.76 2.25-4.47 2.46-8.28 1-16.58 1.76-24.82 3a4.44 4.44 0 0 1-1.49.09c-6.61-1.46-12.62 1.93-19 2.33-2.9.18-4.13 1.81-3.92 4.73l2.53 33.86a12.26 12.26 0 0 1-.08 4.44l-2.84 12c-1.75 5.3-2.88 10.78-4.37 16.15-.52 1.89-.47 4.32-3.09 5-5.01-7.78-9.7-15.68-15.93-22.5z" fill="#e7855f"/><path d="M635.09 383.23c-.3 6.72.52 13.45-.41 20.15-.87 5-.87 5-5.89 4.59l-12.29-.86-2.87-1.3c3.65-6.65 6.89-13.5 7.64-21.22.08-.86.32-1.72.33-2.58.06-13.32.46-26.65-1.45-39.9a48.07 48.07 0 0 0-4.36-14.19c-.87-1.79-1.61-3.63-2.42-5.45 4.75.61 9.22 2.63 14 2.78 2.93 4.51 2.33 9.8 3.15 14.74 2.11 12.84 3 25.82 4.15 38.76.26 1.49-.29 3.04.42 4.48z" fill="#e36f51"/><path d="M147 76.45l-11.94-3.68c1-1.37 3.07-1.93 3-4.07 4.2 1.18 8.05 2.76 8.94 7.75z" fill="#322d2b"/><path d="M585.69 302.93a27.61 27.61 0 0 1-7.2-7.57c.87-.37 1.26.53 1.92.73 1.42 2.54 4.3 3.91 5.28 6.84z" fill="#684739"/><path d="M591.49 308.9c-3.06-.95-4.52-3.43-5.84-6 2.59 1.34 4 3.88 5.84 6z" fill="#664232"/><path d="M595.9 314.09a5.54 5.54 0 0 1-4.27-4.87 19.29 19.29 0 0 1 4.27 4.87z" fill="#664233"/><path d="M221.09 253.53l-5.78-.72-.46-.2c-1.44-2.3-4.36-2.37-6.2-4.07-1.74-.38-3.5.13-5.22-.19-.92-.17-2.26-.09-2.25-1.38 0-1 1.23-1.15 2-1.2 4.23-.27 8.37-1.16 12.57-1.64 7.27-.83 14.56-1.57 21.8-2.69 14.91-2.34 30-3.64 44.9-5.6l64.23-7.9c4.7-.64 9.42-1.06 14.12-1.69 1.5-.2 2.5-.46 2.6-2.37.72-13.24 8.13-22.11 19-28.57a42.24 42.24 0 0 1 11.72-4.82c5.41-1.28 5.81-2 4.83-7.52a71.32 71.32 0 0 0-13.4-25c-5.34-6.11-11.33-11.25-19.49-13.2-2.23-.53-2.8-1.95-2.74-4.16.12-4.59 1.79-8.76 3.14-13a8 8 0 0 0 0-1c4.77-1.72 8.78-.26 12.3 3 4.43 4.15 7.58 9.24 10.36 14.55 3.12 5.93 6.26 11.88 8.17 18.34.67 2.25 1.87 3.29 4.27 3.25a37.78 37.78 0 0 1 4.81.58c5.79.64 5.8.63 4.34 6.39a44.87 44.87 0 0 1-1.49 5.4c-3.68 9.34-3.42 18.84-1.77 28.55.87 5.13.63 10.44 1.19 15.64.33 3.08-1.06 3.82-3.74 4.1-3.09.32-6.53-.43-9 2.28l-6.16.3-85.2 10.59c-9.47 1.07-18.9 2.47-28.43 3-.46.3.21.94 0 .51-.09-.15 0-.29.16-.3 7.1-.3 14.11-2.83 21.29-.83.51 1.79-1 2.16-2 2.49-3.69 1.14-7.57 2.53-11.36 1.57-7.58-1.92-15.13-.84-22.67-.38-11.93.72-23.84 1.66-35.68 3.36a14 14 0 0 1 5.35.08c1.76.43 3.82.07 5.07 1.89.32 1.21-.61 1.52-1.39 1.93-4.55 1.37-9.1 2.65-13.79.63zm173.18-18.85l-8.69 34c-.52 2.11-1.72 2.1-3.29 1.93q-18.74-2-37.47-4c-4.2-.44-8.42-.75-12.62-1.12-5.1 1.25-10.06-.6-15.1-.79a44.13 44.13 0 0 1-6.63-.69c-5.31-1-10.77-.92-16.08-1.95a10.68 10.68 0 0 1-3.51-1.07l-5.83-.64-.5-.23c-.86-1.49-3.48-1.95-2.63-4.45 3.65-2.12 7.37-.29 11 0l45.77 4.8c2.67.27 3.8-.94 4.76-3.13 3.91-9 10.56-15.25 19.15-19.35.69-.09.21-.79.33-.3 0 .17-.07.2-.24.29a1.33 1.33 0 0 1-2.11-.69c2.16-2.41 5-1.16 7.59-1.48 5.93.24 11.78-.88 17.68-1.18 2.78-.16 5.61-.78 8.42.05z" fill="#90bf60"/><path d="M333.92 267.8a42.83 42.83 0 0 1 5.44 8.88c1.43 3.35 2.25 6.85-.31 9.91a11.23 11.23 0 0 1-10.39 4c-5.54-.68-10.09-3.58-14.33-6.92-7.95-6.28-14.9-13.63-21.73-21.09.94-1.22 2.2-.84 3.43-.71l13.36 1.36c6.11 1.12 12.32 1.59 18.39 3 2.07.43 4.12.94 6.14 1.57z" fill="#e7865f"/><path d="M461.27 317.89a1.15 1.15 0 0 0 .66 0c2.11 1.85 5.14 1.2 7.36 2.73l1.74.67c.56.26 1.47.72 1.29 1.6-.24 1.18-1.29 1.06-2.12.9l-9.84-2c-7.66-1.34-15-3.91-22.48-5.94a40.34 40.34 0 0 0-3.94-1.12c-18.17-4.77-35.78-11.48-54.14-15.63-3.29-.74-6.6-1.38-9.91-2a17.63 17.63 0 0 0-8.46.66c-7 5.53-6.5 16.29 1.78 19.22 19 6.73 38.09 13.3 57.47 18.95.4.62 1.87.06 1.58 1.44-5.39-.45-10.26-2.71-15.31-4.36l-20.83-6.88c-8-2.63-16.05-5-23.85-8-5.91-2.31-8.12-10-5.92-15.5 2.58-6.45 8.56-9.52 15.44-7.59s14.35 2.77 21.18 5.5a2.39 2.39 0 0 0 2.53-.35c-.09-1.35-1.32-1.72-2.19-2.2-6-3.31-8.28-7.49-7.09-13.3.79-3.86 6.51-7.81 12-8 6.83-.2 13.46 1.15 20.08 2.74 7.16 1.71 14.41 3.11 21.6 4.76 2.14.49 4.19 1.38 6.29 2.08-.63.84-1.54.38-2.32.49-8.42-1.56-16.69-3.77-25.07-5.48-6.31-1.3-12.67-2.43-19.12-2.31-4.82.08-9.39 1.26-12.1 5.94-1.31 4.89.59 8.95 5.4 11.66 7 4 14.84 5.64 22.49 7.8 5.86 1.66 11.59 3.7 17.3 5.83.89.33 1.35 1 2.05 1.48 3.27-.64 5.92 2.15 9.15 1.68l.77.06c3.86 2.26 8.48 2.13 12.47 4 1.37-.08 2.61 1.02 4.06.47z" fill="#f4eef0"/><path d="M179.21 225c3.07-5.38 3.28-11.63 5.24-17.35.44-1.27.47-2.71 1.55-3.7 2.19.59 1.65 2.47 1.76 3.94l3.3 36.31a9.08 9.08 0 0 0 .53 2.37c.08-2.22 0-3.89 0-5.55a10.38 10.38 0 0 0-.4-4.22 23.22 23.22 0 0 1-.26-5.52c.14-1 .16-2.31 1.22-2.46 1.23-.17 1.27 1.26 1.6 2.14 1.37 3.66 1.18 7.53 1.44 11.35.13 2 .12 4.09 2.85 4.43a2.59 2.59 0 0 1 2.38 1.61 2.24 2.24 0 0 1-1.37 2c-3.15 1-6.3 2-9.49.13-4-1.2-8.08-1.38-12.17-1.6-2.72-.14-3.64-.88-2.85-3.91 1.75-6.63 4.29-13.07 4.67-19.97z" fill="#91bf61"/><path d="M268.24 271.52c-6.6-2.9-12.15-6.83-14.07-14.33a2 2 0 0 1 2-1.45c6.21.64 12.26-1.89 18.48-.89 1.72.57 3.58.63 5.28 1.31a3.8 3.8 0 0 1 1.88 1.37 7 7 0 0 1 2.56 7.26c-1 4.29-2 4.82-6 3.25a15.09 15.09 0 0 0-7.65-.76 4.32 4.32 0 0 0-.77.58c-.62.84 0 1.63.1 2.44.18 1.57-.68 1.6-1.81 1.22z" fill="#e68660"/><path d="M189.59 250.46a41.09 41.09 0 0 0 9.89-1c4.9-2.4 12-1.07 15.49 2.9a2.25 2.25 0 0 0 .34.41c.07 3.35.54 6.84-3.12 8.87-1.86-2.47-4.39-2.28-7.08-1.84 1.69 1.59 1.69 1.57 3.56 1.56 1.19 0 2.43-.7 3.56.24-1.63 2.13-4 2.37-6.38 2.31-6.34-.12-14.74-7.14-16.26-13.45z" fill="#e5865f"/><path d="M318 136.45l.71-4.39q21-2.48 41.9-4.93l5.95-.55.27.34c-2.72 4.25-4.59 9-8.16 12.76a1.59 1.59 0 0 1-.87-.78 6.53 6.53 0 0 1-.64-2.14c-.37-3-2-3.7-4.95-3.34-10.11 1.25-20.18 2.81-30.34 3.61-1.33.1-2.71.56-3.87-.58z" fill="#91bf61"/><path d="M221.09 253.53c4.62 0 9.23-.13 13.7-1.52 4.82-.34 9.66-1 14.23 1.31 1.16.66 2.09 1.44 1.71 3-1.49 1.54-3.68 1.22-5.46 2-3.61 1.62-7.17 3.3-10.07 6.07-1.46 1.39-3 2.12-5 1-4.45-2.84-8.07-6.39-9.11-11.86z" fill="#e36a40"/><path d="M366 331.46c-4 9.42-1.81 14.46 8 18 25.51 9.25 51.61 16.63 77.5 24.68 3.92 1.22 7.78 2.62 11.6 4.09.92.35 2.47 1.09 1.91 2.26a1.89 1.89 0 0 1-3.16.38c-6.73-1.13-13.52-1.94-20.2-3.33-2.32-.44-4.85-.13-6.8-1.89 6.43-.39 12.52 1.7 18.76 2.62a8.86 8.86 0 0 0 5.56-.54l-15.64-5-22.36-6.62-31.12-9.95c-6.38-2.05-12.83-3.91-19.09-6.27-8.07-3.07-10.63-13.17-4.96-18.43z" fill="#f7eae8"/><path d="M455.06 347.7a14 14 0 0 1 7.59 3.65l-10.57-2.51c-6.72-.52-13.07-2.78-19.6-4.19-18.69-4-37.1-9.11-55.37-14.73-3.81-1.17-7 .47-10.41 1.59h-.7c2.81-4.84 7.86-4.68 12.58-3.39 12.24 3.34 24.21 7.67 36.7 10.18 4.92 1 9.71 2.64 14.56 4 1.64.46 3.19.68 4.34-1 4.67.33 8.82 2.53 13.23 3.8a41.06 41.06 0 0 1 7.65 2.6z" fill="#f6eceb"/><path d="M230.23 265.41c1.93.3 3.19-.74 4.6-1.91 4.54-3.78 9.41-7 15.64-7.08a.94.94 0 0 1 1.47.11c-.43 2 .62 4.05-.57 5.94-.65 1.34-1.63 2.48-2.33 3.79h0a2.68 2.68 0 0 1-1.57.33 29 29 0 0 0-7.13-1.62c-1.92-.31-3.1.4-3.21 2.47-1.55 1.51-2.79-.12-4.16-.42a4.37 4.37 0 0 1-2.74-1.61z" fill="#e68761"/><path d="M394.27 234.68c-3.37 1.57-7 .72-10.58 1.31-5.08.84-10.33.67-15.51.93.19-2 1.93-2 3.25-2.42a35.63 35.63 0 0 1 11.74-1.63c2.92.18 5.5-.09 6.2-3.68.11-.61.79-.92 1.32-1.24 1.7.65 3.8-1.51 5.28.74q-.86 3-1.7 5.99z" fill="#70984c"/><path d="M251.94 256.53l-1.47-.11a2.93 2.93 0 0 0-1.12-2.22c-.9-.34-1.63-.8-1.39-1.95.91-1.39 2.31-1.26 3.66-1.11l20.63 2.21c1.86.22 4 0 5.33 2-.57 1.2-1.45.66-2.28.4A49.74 49.74 0 0 0 261 257c-2.29.54-4.6-1.5-6.84.17z" fill="#97bc61"/><path d="M268.24 271.52c.66-.21 1.63-.18.88-1.34s-1.26-2.2.19-3.17c2.13 2.55 4.84 3.09 8.32 2.32-2.79-1.7-5.91-.78-8.34-2.3a10.4 10.4 0 0 1 10.77 1c1.65 1.12 2 .66 2.74-.56 2.41-3.74.87-6.8-1.56-9.73 2-.52 2.61 1.19 3.6 2.28l.21.29c-.37 8.35-2.85 11.72-9.43 12.87a9.46 9.46 0 0 1-7.38-1.66z" fill="#d38e72"/><path d="M317.16 128.9c-5.07 2.3-12.29.52-14.31-3.53.21-.44.33-1.16.65-1.27 2.91-.98 11.68 2.15 13.66 4.8z" fill="#fdfcfa"/><path d="M333.92,267.8c-.95,1.22-2,.35-3.05.15q-10.58-2-21.15-4.13c-.11-.69,0-1.1.85-.74a212.45,212.45,0,0,1,21.63,2.35Z" fill="#281d0c"/><path d="M455.06 347.7c-7.2-1.34-13.86-4.46-20.9-6.37l-11.9-4-1.58-1.44c8.18 1.75 15.81 5.22 23.76 7.68 3.56 1.15 7.56 1.43 10.62 4.13z" fill="#705145"/><path d="M444 286.47l2.2-.19 33 7.76c-.59 1-1.53.67-2.33.49q-16.41-3.7-32.81-7.44c-.3-.12-.4-.26-.31-.4s.12-.22.25-.22z" fill="#754e40"/><path d="M420.65 374.16c-3.12.15-6.07-.79-9.08-1.37-5.12-1-10.24-1.22-15.27.56 3-3.09 6.77-3.31 10.64-2.66 4.83.82 9.62 1.87 14.43 2.83.12.61.05 1.01-.72.64z" fill="#ce8570"/><path d="M233 267c1.31-.47 2.69 1.56 4-.1 3.4-.81 6.93 0 10.33-.8l1.76.14c-3.78 5.02-11.31 4.64-16.09.76z" fill="#d29178"/><path d="M310.57 263.08l-.85.74c-5.72-.28-11.36-1.57-17.13-1.24a2.9 2.9 0 0 1-1.71-1.65 151.4 151.4 0 0 1 19.69 2.15z" fill="#3e3113"/><path d="M420.65 374.16l.72-.64 13.47 2.14 6.81 1.57c.18.15.24.29.18.44s-.11.22-.17.22a159.36 159.36 0 0 1-21.01-3.73z" fill="#d2917a"/><path d="M497.06 238.25c1.61 3.67 1.43 7.89 3.47 11.43 1.19.58.73 1.63.74 2.54a19.18 19.18 0 0 1-4.21-13.97z" fill="#725c53"/><path d="M503.12 254.57c.87 3.32 4.68 4.74 5.3 8.23-2.94-2.81-5.92-5.59-6.91-9.78.98.06 1.39.7 1.61 1.55z" fill="#664e44"/><path d="M578.18 295c-1.75-1.63-3.88-3-4.47-5.52 1.9 1.52 4.05 2.86 4.47 5.52z" fill="#6a483a"/><path d="M503.12 254.57l-1.61-1.57-.24-.8-.74-2.54c1.84 1.13 2.41 2.92 2.59 4.91z" fill="#e5bba5"/><path d="M249 266.26c0-1.72 1.13-2.79 2.33-3.79a4.49 4.49 0 0 1-2.33 3.79z" fill="#d29178"/><path d="M366.7 331.51c3-2.72 6.43-3.73 10.35-2.49 24.69 7.81 49.93 13.54 75 19.82-3.32 1.51-6.34-.49-9.34-1.14-21.7-4.72-43.33-9.79-64.56-16.36a14.34 14.34 0 0 0-8.79 0c-.79.24-1.69 1.29-2.66.17z" fill="#d0775d"/><path d="M361.43 297.75c3.27-2.3 6.85-1.92 10.46-1.25 17.35 3.23 33.89 9.36 50.79 14.22 3.83 1.11 7.63 2.35 11.44 3.54.15.65 0 1-.75.71a306.29 306.29 0 0 1-29.69-8.49c-11.65-4-23.7-6.39-35.74-8.81-2.19-.44-4.33.77-6.51.08z" fill="#ce785e"/><path d="M444 286.47v.62c-6.94-.5-13.52-2.77-20.28-4.13s-13.63-2.31-20.48-3.19a18.64 18.64 0 0 0-15.68 5.15c.87-3.89 3.83-5.33 7.27-6 6.87-1.4 13.69-.39 20.4 1 9.62 1.92 19.16 4.33 28.77 6.55z" fill="#cc7f68"/><path d="M433.37 315l.75-.71 26.24 7.53c-.44.17-.95.58-1.32.47-8.52-2.57-17.3-4.22-25.67-7.29z" fill="#d08c75"/><path d="M526.81 380.85c-7 2-13.9 4.47-21 6.17a78.73 78.73 0 0 1 21-6.17z" fill="#82442c"/><path d="M441.66 377.89v-.66c6.74 1.2 13.61 1.59 20.19 3.65-6.85-.02-13.55-1.45-20.19-2.99z" fill="#da9b83"/><path d="M556.19 348.1a63.73 63.73 0 0 1-12-12c-.07-.35.07-.47.42-.39l12 12c.05.29-.07.46-.42.39z" fill="#753822"/><path d="M457.45 317.7l-12.3-3c-.62-.16-.38-.79-.43-1.24 4.25 1.17 8.68 1.75 12.74 3.6.23.15.3.3.22.45s-.16.19-.23.19z" fill="#735245"/><path d="M539.9 379.38l-10.64 1.49c3.37-1.77 7-2.09 10.64-2.11.24.14.32.28.24.41s-.14.21-.24.21z" fill="#763720"/><path d="M444 313.37c-3.33 1-6.07-1.26-9.14-1.68 3.36-1.41 6.06 1.04 9.14 1.68z" fill="#6e4e41"/><path d="M539.9,379.38v-.62h12.83v.62Z" fill="#70321a"/><path d="M573.65 358.92a15.48 15.48 0 0 1-8-4.4l8 3.74c.24.16.31.31.22.45s-.14.21-.22.21z" fill="#793c24"/><path d="M469.29 320.66c-2.46-.9-5.55-.08-7.35-2.74 2.43.95 5.46.33 7.35 2.74z" fill="#6e4334"/><path d="M556.58,347.69l6.53,4.85-.53.75a32.22,32.22,0,0,1-6.39-5.19Z" fill="#763922"/><path d="M573.65 358.92v-.66c2.39.13 4.78.52 7.15-.36-2.18 2.1-4.69 1.35-7.15 1.02z" fill="#77381f"/><path d="M540.82 331.2a19 19 0 0 1 3.78 4.51l-.41.39a17.22 17.22 0 0 1-3.83-4.5c-.01-.31.15-.45.46-.4z" fill="#733720"/><path d="M457.45 317.7a2.51 2.51 0 0 0 0-.67 8.15 8.15 0 0 1 3.81.86c-1.36 1.78-2.54-.1-3.81-.19z" fill="#583427"/><path d="M540.36 331.6c-.66-.62-1.54-1.09-1.51-2.25 1.34 0 1.51 1.06 2 1.85a2.49 2.49 0 0 1-.49.4z" fill="#7e3d24"/><path d="M635.09 383.23c-.83-1.43-.61-3-.37-4.48.78 1.44.28 2.99.37 4.48z" fill="#1f3759"/><path d="M318 136.45l35-4.36c2.83-.37 5-.3 4.95 3.39a29.5 29.5 0 0 0 .51 4.05c1 2.34-.83 4-1.52 5.89s-.32 2.53 1.55 2.73a45 45 0 0 1 9.75 2.46 73.57 73.57 0 0 1 10.58 5.57c9.12 7 16.57 15.31 20.8 26.19 2.4 5.22 1.29 7.49-4.17 8.89-12.52 3.21-22.56 9.73-28.43 21.67a23 23 0 0 0-2.59 12.27c.09 1 .38 1.83-1.23 2Q347 229 330.74 231l-27.65 3.54-27.72 3.2-27.66 3.51c-3.32.41-6.67.65-10 1a4.72 4.72 0 0 1-1.44-2.48c-3-14.43-16.73-22.63-31-23.52-3-.18-6 .48-8.9-.59a3.23 3.23 0 0 1-1.22-1.37c-1.16-7.64-1.36-15.36-1.91-23.05-.22-3.22-1-6.41-.75-9.67.09-1.07 0-2.49 1.23-2.84 1.07-.31 1.23 1 1.62 1.71.78 1.41 2 1.36 3.24 1 14-3.58 24.64-11.11 29.58-25.3a19.85 19.85 0 0 0 1-5.12c.33-4.39.53-4.77 5-5.36l28.2-3.43c3-.37 5.86-1.13 8.82-1.49A25.39 25.39 0 0 1 284 142.6c6.36 2.66 13 2.87 19.77 1.66a27 27 0 0 1 4.42-1.19c3.81-1.41 6.81-3.93 9.81-6.62z" fill="#acd87a"/><path d="M271.57 141.61c-11.45 2.27-23.06 3.41-34.66 4.62-1.73.17-3.43.55-5.15.76-1.34.16-1.5 1-1.55 2.12-.59 14.7-9.45 23.54-21.54 29.89-2.93 1.55-6.28 2.33-9.48 3.34-4.13 1.31-4.57 1-5.72-3.07l2.26 35.15c1.53 2.32 1.28 5.09 1.51 7.6l1.71 21.9a4.22 4.22 0 0 1-1 3.49c-2.68.2-3.61-.48-3.7-3.28-.16-5-.25-9.94-1.87-14.71-.67.28-.33 1-.44 1.53-1.77-.2-1.67-1.68-1.75-2.83-.62-9.81-1.88-19.57-2.14-29.4-.05-2.24.66-4.44.36-6.69.93-3.48-.24-6.9-.41-10.33-.49-9.92-1.31-19.82-2.12-29.72-.21-2.49.65-3.68 3.13-4s5.52-.27 7.65-1.24c6.83-3.1 14-.67 21-2.32s14.23-1.86 21.37-2.74a8 8 0 0 0 1.69-.66c2.32-1.66 5-.51 7.43-.85a12.06 12.06 0 0 0 5.26-.66l7.44-.06a20.93 20.93 0 0 0 6.79.55c1.47-.12 3.23-.41 3.93 1.61z" fill="#90bf60"/><path d="M188.42 192a171.16 171.16 0 0 1 1.34 18.39c.25 6.86 1.42 13.69 2.19 20.53l.06 6c.79 1.15-.18 2.62.69 3.75v7.11c0 .77-.13 1.61-1.11 1.61s-1.05-.85-1.12-1.61l-2.26-22.55c-.78-7.11-.87-14.29-2.2-21.33-.1-4.12 1.74-7.9 2.41-11.9z" fill="#6f9849"/><path d="M271.57 141.61c-3.48-1.16-7.4-.13-10.73-2.12a66.31 66.31 0 0 0 7.07-.63c6.48-1.29 12.51-1.07 18.63 2.2a28.44 28.44 0 0 0 17.12 2.83c.76-.29.89 0 .67.69a30.74 30.74 0 0 1-21.89-1.39 19.84 19.84 0 0 0-10.87-1.58z" fill="#221a10"/><path d="M248.8 140.8l-8.09.26c-3-.44-6.12.43-9.05-.84.35-.55 1-.29 1.45-.49l7.51.37c2.74.05 5.61-1.36 8.18.7z" fill="#663c1c"/><path d="M248.8 140.8c-2.64-1.24-5.48-.14-8.18-.7 4.22-1 8.51-.52 12.78-.55-1.25 1.45-2.9 1.45-4.6 1.25z" fill="#7b6639"/><path d="M227.24 140c-2.55-.44-5.18-.47-7.55-1.83a19.87 19.87 0 0 1 7.55 1.13c.23.15.31.31.23.47s-.15.23-.23.23z" fill="#843b23"/><path d="M180.56,148.61c-2.23-.59-4.22-2.06-6.67-1.9a6.52,6.52,0,0,1,7,1.58Z" fill="#732c13"/><path d="M227.24 140v-.7l5.87.39-1.45.49z" fill="#742c15"/><path d="M304.33,144.58l-.67-.69c1.42-.7,2.84-1.4,4.49-.81Z" fill="#856737"/><path d="M180.85 148.29a3.87 3.87 0 0 1 2.77 2.36 5.16 5.16 0 0 1-3.06-2c.1-.14.2-.25.29-.36z" fill="#702b16"/><path d="M277.5 255.5c-4-1.52-8.21-1.31-12.31-1.86-5-.67-10-.84-15-1.68a1.87 1.87 0 0 0-2 .73c-3.94-.56-8-.47-11.86-1.41-4.59-1.93-9.71-.95-14.38-2.6 11-1.3 21.9-3.41 33-3.58 5.06-.07 10.11-.85 15.16-1.3a42.53 42.53 0 0 1 12.57.95c5.27 1.08 10.29-.07 15-2.55 1.1-1.36 2.68-1.59 4.28-1.77l52.6-3.74c2.07-.17 4.25-.63 6.09.94h4c-5.35 3.15-9.73 6-13.45 9.75a31.35 31.35 0 0 0-7.49 11.88c-.77 2.27-1.87 2.59-3.74 2.4l-24.38-2.41-25.44-2.74c-2.69-.22-5.49-2.18-8.22 0a1.51 1.51 0 0 1-1.53.2c-.89-.59-2.14-.29-2.9-1.21z" fill="#acd87a"/><path d="M360.69 237.63l-40.33 2.91c-6.28.61-12.62.59-18.93.86-.27-2.27 2-2 3-3l21.76-2.63q10.88-1.32 21.76-2.64l21-2.61q10.88-1.34 21.75-2.62c-2.05 6-2.05 5.92-8.9 6a30.71 30.71 0 0 0-13.61 3c-2.5.34-5.12-.7-7.5.73z" fill="#86ab60"/><path d="M378.55 156.78l-10.37-5.39c-4.28-3-8.44-6.17-9-12a29.88 29.88 0 0 1 7.7-12.49c1.92.1.63 1.14.42 1.67a39.16 39.16 0 0 0-3 12.59c-.08 1.84.52 2.38 2.07 2.73 8.4 1.88 14.64 7 19.91 13.49-.49 2.07-2.05 1.16-3.23 1.1-1.69-.05-3.05-1.09-4.5-1.7z" fill="#519023"/><path d="M378.55 156.78c2.61-.36 5 1.81 7.69.62a65.66 65.66 0 0 1 13.43 25c-5.43-9.89-12.21-18.63-21.12-25.62z" fill="#64a230"/><path d="M198,247.41c-.69-9.13-1-18.29-2.15-27.39a45.42,45.42,0,0,1-.08-5.6l.73.77c1.81,2.05,1.72,4.58,1.85,7.07q.49,9.5,1.38,19c.25,2.68,1.34,3.83,4.05,3.43,9.85-1.45,19.78-2.4,29.65-3.73,1.25-.17,2.33-.88,3.58-1,.85.55.71,1.43.74,2.26-4.46,1.61-9.21,1.42-13.8,2.15-7.32,1.15-14.71,1.73-22.08,3.13h7.88c.06,0,.12.16.18.25l-.8.53c-2.9.88-5.82.28-8.73,0Z" fill="#9cc96c"/><path d="M304.41,238.44l-3,3-3.71.8c-7.5-.41-14.94,1.6-22.52-.09Z" fill="#6f9948"/><path d="M200.36 248.28h8.73c2 1.27 5.39.69 5.88 4.16-4.68-3.54-10-3.5-15.49-2.9z" fill="#493e14"/><path d="M236.34,251.28a28.94,28.94,0,0,1,11.86,1.41l1.15,1.51c-4.67-2-9.75-1.18-14.56-2.19Z" fill="#4a310c"/><path d="M280.53 256.29l1.42.18c1 1.16 3 1.44 2.89 3.53-1.47-.32-1.95-2.23-3.6-2.28l-1.4-.71c-.22-.67-.06-1.01.69-.72z" fill="#4e3e15"/><path d="M192.7 240.7c-1.17-1.08-.59-2.48-.69-3.75 1.19 1.05.53 2.49.69 3.75z" fill="#90bf60"/><path d="M280.53 256.29l-.69.72c-1.44-.68-3.25-.08-4.54-1.29l2.2-.22c1.02.22 2.19-.11 3.03.79z" fill="#82793c"/><path d="M212.23 261.64c-2.63.81-5.26 1.35-7.89 0-.79-.42-1.57-1-1.38-2s1.21-1.06 2.08-1l4.8.17c1.86.08 2.66 1.05 2.35 2.9z" fill="#fdf4ec"/><path d="M359.14,139.41c1.85,4.88,5.77,8.18,9,12-3.6-.87-7.1-2.15-10.84-2.47-1.84-.15-2.58-.91-1.55-2.88s1.82-4.33,2.71-6.51Z" fill="#63a22f"/><path d="M247.29 266.12c-3.24 2.83-6.82 1.44-10.33.8-1-.91-1.2-1.89 0-2.69 1.59-1 8.7.37 10.33 1.89z" fill="#faefe5"/><path d="M269.29,267c2.88-.41,5.65.46,8.47.69.87.07,1.82.33,1.69,1.5-.09.85-.87,1.09-1.6,1.31-3.83,1.18-8-.52-8.54-3.52Z" fill="#fdf4eb"/><path d="M298.3 149.91c10.8-.76 22.82 8.38 27.64 20.6 6.37 16.16 2.46 35.31-10.46 46.86-10.14 9.06-27.14 8.86-37.25-.11-15.11-13.4-16.69-37.75-5.2-53.76 5.97-8.3 13.91-13.92 25.27-13.59zm-61.3 90c-.34 1.91-1.85 2.08-3.37 2.25-9.81 1.11-19.63 2.08-29.38 3.69-4.67.77-5.16.23-5.53-4.45l-2.23-26.21c7.61-.33 15.18-.16 22.26 3.05 9.46 4.3 16.67 10.63 18.25 21.67z" fill="#90bf60"/><path d="M299.88 217.8a30.29 30.29 0 0 1-2.8-3.19c-5.11-6.05-10.25-12.07-15.66-17.85a1.87 1.87 0 0 1-.56-1.39v-4c0-1 .42-1.45 1.45-1.47 2.08 0 4.16.1 6.23-.11a12 12 0 0 0 6.94-2.55 6.85 6.85 0 0 0 2-3c.13-.39.06-.47-.35-.47h-14.74c-1.19 0-1.52-.33-1.52-1.53V179c0-.93.39-1.31 1.32-1.31h14.87a2.67 2.67 0 0 0-.63-1.07 8 8 0 0 0-4.67-2.63 20.85 20.85 0 0 0-4.79-.44h-4.67c-1 0-1.43-.42-1.43-1.44v-4.41c0-.94.4-1.34 1.35-1.34h30c1 0 1.38.39 1.39 1.37v3.31c0 1.1-.4 1.38-1.42 1.38h-7.58-.54c-.1.16 0 .24.09.32a11.91 11.91 0 0 1 2 4.46c.09.42.27.51.67.51h5.53c1 0 1.34.38 1.34 1.34v3.41c0 .89-.41 1.29-1.29 1.3h-5.58c-.23 0-.43 0-.49.31-1.08 5.76-4.64 9.32-10 11.23a22.27 22.27 0 0 1-4.59 1c0 .2.13.26.22.36 5.69 6.16 11 12.64 16.34 19.12.63.76.49 1.42-.42 2z" fill="#407d07"/></svg>