<svg xmlns="http://www.w3.org/2000/svg" viewBox="0 0 749.88 413.65" xmlns:v="https://vecta.io/nano"><path d="M749.88,388.82l-1.49-.07c-.87-1.5-.65-3.15-.64-4.76q0-61.44,0-122.87c0-2.43-.59-5,1.29-7.17l.82-.09Z" fill="#fee7cd"/><path d="M.93 304.66l-.93.18V169.13l.85.11c1.24 1.34 1 3 1 4.62q0 62.87 0 125.72a9.57 9.57 0 0 1-.92 5.08z" fill="#bcdafe"/><path d="M350.16 49.85q5.05-6.21 10.11-12.43c3.21-4 5.52-4.46 10-2q15.79 8.49 31.58 17c1 .53 2 .93 3 1.39 2-.33 3.6.87 5.21 1.75l78.49 42.23c4.72 2.55 9.56 4.89 14.12 7.74a10.64 10.64 0 0 1 4.65 5.68c.58 1.71 1.28 3.67-1 4.91-.33 0-.63-.52-.63-.47a7.15 7.15 0 0 1-1.79 3.65c-24.07 33.15-47.08 67.06-70.61 100.6q-36.72 52.29-73.17 104.77c-4.77 6.88-8.75 7.65-15.74 2.86q-41.8-28.76-83.65-57.53l-52.7-36.46c-1.75-2-.17-3.62.9-5l14.56-18.53q13.84-17.44 27.8-34.78c5.78-7.15 10.68-15.08 17.88-21 4.9-4.05 10.6-7 15.56-10.94 5.91-4.75 12.19-9.07 17-15.07a10.58 10.58 0 0 1 4.63-3.06 32.3 32.3 0 0 0 16.1-12.75c1.34-2.08 2.71-4.15 2.7-6.77.38-2.59 1.16-5.08 1.68-7.64.7-3.5-.16-6.65-1.36-9.81-.28-1.75-2-2-3.09-2.87-.49-2.06 1.08-3.23 2.11-4.52l22.57-28.4c.84-1.08 1.59-2.27 3.09-2.55z" fill="#2ea08b"/><path d="M506.35 115.75c1.08-4.4-.49-7.48-5.38-10.12l-43.81-23.56Q431 68 404.91 53.76c-.57-1.57.41-1.53 1.53-1.61 8.16-.63 16.28-1.65 24.38-2.85C446.13 47 461 43 475.79 38.67c24.3-7.17 47.54-17.22 71.23-26.06 13.31-5 26.67-10 40.79-11.86 11.28-1.51 22.65-1.16 32.87 5.13 9.05 5.56 14.82 14 19.36 23.23a120.14 120.14 0 0 1 8.49 23.12c2.47 9.59 1.27 19-1.68 28.21-3.82 12-9.2 23.43-13.23 35.35-5.84 17.24-10 34.84-11.34 53.09l-1.35 23.45c-1 18.49 6.1 34.23 16.79 48.71l6.54 8.62c.41.56 1.94 1.59-.23 2-2.62 1.55-4.92-.31-7.36-.68-5.62-1.62-11.61-2.25-16.41-6.1-1.21-1.27-2.23-2.71-3.44-4a8.35 8.35 0 0 1-.6-.83 22.86 22.86 0 0 0-3-3.41 7.68 7.68 0 0 1-.62-.79c-1-1.77-2.59-3-3.87-4.45a6.65 6.65 0 0 1-.61-.79c-1-1.9-2.84-3.15-4.15-4.82a5.61 5.61 0 0 1-.58-.8c-1.25-2-3.2-3.32-4.63-5.13a8 8 0 0 1-.58-.82c-1-1.62-2.53-2.7-3.6-4.22-4.7-8.07-11.41-14-19.36-18.81a58.8 58.8 0 0 1-18.77-18c-2.45-3.73-6-5.88-9.26-8.56-4.93-4.1-9.48-8.45-12.59-14.17a19.88 19.88 0 0 0-7.11-7c-3.86-2.49-7.18-1.27-8.95 3-1.18 2.88-.64 5.93-1.14 8.86-.23 4.34 1.1 8.33 2.75 12.24a14.88 14.88 0 0 0 2.12 4.57 19.71 19.71 0 0 0 3 4.5 6 6 0 0 1 .6.83c1.75 2.47 4.23 4.28 6.12 6.62 3.9 4.55 7.56 9.29 11.32 13.94a22.63 22.63 0 0 1 3 4.7c2.62 5.72.59 9.56-5.49 11.08-14.58 3.66-29.14 2.94-43.74.26-3.76-1.31-7.7-1.92-11.54-2.88-1.91-.37-3.79-.93-5.74-1.15-4.94-1.78-10.14-2.59-15.16-4.08a5.92 5.92 0 0 1-3.63-1.63c-.75-1.83.43-3.13 1.33-4.41L502.01 148a73.65 73.65 0 0 0 6.78-10.75 12 12 0 0 0 1.36-7.22 9 9 0 0 0-3-5.75c-3.97-3.83-3.98-3.82-.8-8.53zm-156.19-65.9q-13.83 17.62-27.64 35.26c-.48 1.58-1.94 1.83-3.19 2.29a29.51 29.51 0 0 0-9.94 5.84c-1.85 1.32-4 1.78-6.12 2.55-.73.17-1.42.48-2.14.7l-27 8.07a5.87 5.87 0 0 1-1.09.3c-10.47 2.3-19.71 7.18-28.53 13.16a76.84 76.84 0 0 1-15.22 8.56 49.63 49.63 0 0 0-8.76 4.5 6.17 6.17 0 0 1-.88.55 28.06 28.06 0 0 0-4.42 2.45 5.71 5.71 0 0 1-.84.54 10.87 10.87 0 0 0-3.3 2.13 10 10 0 0 1-2.53 1.73 39.71 39.71 0 0 0-10.6 7.15 7.12 7.12 0 0 1-2.5 1.7 7.46 7.46 0 0 0-2.8 1.72 8.26 8.26 0 0 1-.76.56 14.09 14.09 0 0 0-2.24 1.68 7 7 0 0 1-.75.57 14.09 14.09 0 0 0-2.24 1.68 8.36 8.36 0 0 1-.76.57 13.78 13.78 0 0 0-2.26 1.7 6.13 6.13 0 0 1-.77.57 15.36 15.36 0 0 0-2.32 1.78 7.19 7.19 0 0 1-.84.61c-2.51 1.47-4.81 3.25-7.19 4.92-5.69 2.09-11.69 2.57-17.62 3.24-13 1.47-26 3-39.12 3.44a12.33 12.33 0 0 0-5.72.4c-1.55.19-3.12.45-4.37-.87 1.16-.86 2.21-1.48 2.33-3.39l2.81-36.74c1.41-14 3.32-27.84 6.86-41.44 3.51-13.45 8.38-26.28 16.72-37.65 12.38-16.9 29.3-26.13 49.51-30a126.31 126.31 0 0 1 31.93-2.18 296.63 296.63 0 0 1 50 7.63c15.74 3.79 31.17 8.62 46.52 13.76a268 268 0 0 0 36.1 9.24 8.59 8.59 0 0 1 1.68.72z" fill="#fff4df"/><path d="M208.66 137.72l1.91-1.52c1.21-.93 2.76-1.29 3.88-2.37h0c1.68-1.16 3.73-1.67 5.28-3h0c3-1.75 6.3-3.05 9.17-5.09 8.76-4.23 16.81-9.66 25-14.84 5.85-3.69 12.51-5.3 19.15-6.88.58.61.06 1.28.12 1.91.2-.69.05-1.48.63-2.06 6.57-3.24 13.84-4.34 20.72-6.65 2.2-.73 4.4-1.71 6.81-1.66 1.38 2 1-.88 1.78-.64l5.83-2.1c4.89 1.77 8.78-.53 12.66-3 1.39-.91 2.4-2.58 4.4-2.39 3.24 4.4 2.43 9.21 1.39 14-.31 1.45-.77 2.88-1.16 4.32a23 23 0 0 1-3.37 6.92 36.13 36.13 0 0 1-16.38 12.55 20.11 20.11 0 0 1-6.88 1.53 58 58 0 0 0-15.76 3c-4.39 1.39-5.74 5.56-7.46 9.28 0 2.14-1.94 3.84-1.38 6.11-1.44 4.37-5.05 7.23-7.57 10.84-6.16 6.23-11.09 13.46-16.5 20.28l-37.22 46.82c-.78 1-1.3 2.52-3 2.5-2.59-1.77-5.7-2.34-8.49-3.62a88.07 88.07 0 0 0-9.74-2.38 100.1 100.1 0 0 1 10 2.49c2.52 1.6 6.08 1.21 7.93 4.11-.3 1.68-1.42 2.88-2.44 4.12-3 3.59-4.71 7.55-4.38 12.33.12 1.67.33 3.55-1.33 4.81a3.63 3.63 0 0 1-2.93-.13c-5-2.49-10.25-1.69-15.43-1.07-28.13 3.36-56.13 7.58-84 12.49-2.18.39-4.4 1.17-6.55-.18-1.42-1.19-1.39-2.85-1.39-4.47 0-12.7-.53-25.44.17-38.11.5-9 1.22-18.05 2.51-27 .71-4.89 1.21-9.85 1.81-14.78.14-1.24.13-2.5 1.13-3.45a1.71 1.71 0 0 1 2-.24c2.08 0 4.23.54 6.2-.62l4.56-.18c1.71-.6 3.57.28 5.25-.55 13-.46 26-2 38.89-3.47 6.25-.71 12.58-1.11 18.58-3.33a31.72 31.72 0 0 0 6.92-4.55h0a20.35 20.35 0 0 0 3-2.28h0a21.06 21.06 0 0 0 3-2.28h0a21.06 21.06 0 0 0 3-2.28h0a20.35 20.35 0 0 0 3-2.28h0c1.25-.56 2-1.81 3.39-2.21l1.9-1.11a60.86 60.86 0 0 1 11.39-7.64z" fill="#faa27c"/><path d="M749.06 254q0 64.85 0 129.67c0 1.73.31 3.52-.65 5.13-14.43-2.72-29-4.56-43.6-6l-56.84-5.36c-.22 0-.43-.22-.65-.33a5.87 5.87 0 0 1 .76-3.23c4.34-9.18 5.92-19 6.91-29 .35-3.47 1.12-6.9.95-10.41 0-25.74-1-51.4-5-76.88-.27-1.73-.62-3.45.11-5.16-.15-1.53.93-1.54 2-1.51q19.85.5 39.67 1l12 .36 40.81.88a6.27 6.27 0 0 1 3.53.84z" fill="#f2b371"/><path d="M651.05 252.43c2.17 7.81 2.59 15.88 3.52 23.86a373.18 373.18 0 0 1 2.33 53.27c0 1.78 1.63 3.57 0 5.33-1 6.13-1.08 6.27-7.58 5.47-3.92-.49-7.87-.72-11.75-1.47a4.71 4.71 0 0 1-1.88-.48c-2.52-1.54-1.35-3.42-.38-5.16 3.28-6 5.84-12.18 6.54-19 .93-9.06 1.82-18.12.57-27.25-.59-4.33.16-8.74-.41-13.09a66.07 66.07 0 0 0-5.34-19.81c-.55-1.17-2.23-2.72 0-4l7.41 1.61c2.24.71 4.44 2.2 6.97.72z" fill="#e46f51"/><path d="M98.26 170.77c-1.72 7.16-2.1 14.51-3 21.78-2.56 20.61-2.71 41.3-2.21 62a7.84 7.84 0 0 0 .79 4c-.29.93-.9.91-1.63.57-1.93-2.43-1.94-5.38-2-8.21-.15-18-.22-35.95 1.91-53.87 1-8.06 1.61-16.15 3-24.15.48-2.68-.17-4.27-3.13-3.9-11.82 1.5-23.74-.08-35.56 1.26a23 23 0 0 1-3 .18c-14.87-.41-29.72.63-44.58.77-6 .05-6.1.11-6.1 6.05q0 57.54 0 115.09v5.25c.12 3.64.61 4.11 4.32 3.46 13.3-2.36 26.73-3.71 40.14-5.22 15.51-1.74 31.07-3.09 46.63-4.31 2.07-.16 4-.5 5.34-2.22 3.12-.25 3.1 1.85 3 4a3.73 3.73 0 0 1-3.18 1.49c-9.57.54-19.1 1.72-28.66 2.38-1.47.1-3 .45-4.34-.57-11.32.36-22.52 2-33.76 3.29a285.24 285.24 0 0 0-31.3 4.77c-.06-1-.18-2-.18-3V171.48c0-.75.06-1.5.1-2.24 23.13-.94 46.27-1.41 69.42-1.74l25-.64c1.17 0 2.8-.92 3.53 1-.56.88.28 2.05-.55 2.91z" fill="#6f91d8"/><path d="M98.26,170.77a3,3,0,0,1,.55-2.94l.72,2.69Z" fill="#0c102a"/><path d="M66 296.6c10.36-1.56 20.83-2 31.24-3 1.58-.15 3.26.3 4.73-.69a11.6 11.6 0 0 1 1-2.43c5.14-7 6.56-15.28 7.57-23.64.56-4.65 1.09-5.23 5.62-5.95 21.72-3.47 43.54-6.16 65.36-8.9a18.29 18.29 0 0 0 4.75-1c6-2.45 11.54-1.34 16.58 2.49a99.69 99.69 0 0 0 17.13 10.67c2.84 1.88 7.08 2.16 7.59 6.68-1.29 13-.51 26-.69 39.05 0 1.55-.52 3.27.89 4.55 2.26-.49 3.1-2.72 4.82-3.85 1.54-1 2.79-3.07 5.14-1.68 3.76 5.61 6.75 11.65 10.35 18.31-1.47-11-.88-21.33-1-31.65a37.73 37.73 0 0 1 1.28-10.36c1.95-1.95 3.44-.13 4.85.77 8 5.12 15.74 10.61 23.56 16l49.13 33.64 23.86 16.19c5.34 3.45 8 3.16 11.64-2.11l33.82-48.54 11.58-16.58a6.51 6.51 0 0 1 2.95-2.78c3.51-.34 6.45 1.59 9.65 2.46 2.76.75 5.41 1.87 8.19 2.57 14.71 4.39 29.09 9.81 43.81 14.16a31.75 31.75 0 0 1 7.83 3.54c1.24.76 2.92 1.66 2.09 3.42s-2.49 1.26-4 .72l-1.05-.39-36.09-6.83c-2.19-.44-4.32-1.11-6.52-1.48-4.16-.73-8.24-1.83-12.38-2.67a22 22 0 0 0-5.94-.28 7.6 7.6 0 0 0-7.09 5.18c-1.15 3.3.63 5.84 3 7.78a29.5 29.5 0 0 0 8 4.7 281.13 281.13 0 0 0 35.77 10.45c19.88 4.91 39.66 10.29 60.09 12.59 17.6 2 35.18 4.32 53 4.19a38.84 38.84 0 0 0 14-2.31c13.19-5.08 26.86-5.11 40.64-3.95 4.42.38 9-.32 13.14 2.12l1.6.27a3.24 3.24 0 0 1 1.06 2.33 176.87 176.87 0 0 0 2 19.35 3.11 3.11 0 0 1-.76 2.78c-.16 1.67-1.63 1.73-2.73 2.14a427.64 427.64 0 0 1-52.52 15.94c-24.41 5.86-49.1 10.29-73.86 14.42l-47.47 7.18c-11.15 1.75-22.42 2.72-33.65 3.93l-43.34 4.34-28.67 1.82c-26.06 1.85-52.13 1.49-78.19 1.2-14.27-.16-28.54-1.29-42.77-2.77-20.16-2.09-40.17-5-59.87-9.8-20.54-5-40.57-11.57-59-22-18.84-10.58-35.22-24-45.14-43.88-4.58-9.18-6.52-19-7.16-29.13-.33-3.09.99-6.13.58-9.28z" fill="#fff4df"/><path d="M639.71 362.45a121.71 121.71 0 0 1-2.26-24.45l12.13 1.23c5.7.61 5.7.62 7.28-4.33-.47 11.92-1.76 23.72-5.85 35-.92 2.53-1.71 5.17-3.71 7.17-4.16-4.01-5.64-9.43-7.59-14.62z" fill="#231f20"/><path d="M344.22 96.84a2.78 2.78 0 0 1 .36-.41 9.21 9.21 0 0 0 2.64-3.33 2.1 2.1 0 0 1 .37-.42 13.86 13.86 0 0 0 2.62-3h0c.85-1.38 2.19-2.38 3-3.78h0c.82-1.46 1.8-1.26 3.11-.54l7.42 4.29h0l12.78 7.53h0c1.14 1 2.62 1.35 3.79 2.28h0l12.78 7.52h0l12.78 7.52h0c1.15 1 2.63 1.35 3.79 2.27h0l12.78 7.52h0c1.15 1 2.63 1.35 3.79 2.28h0l9 5.28h0c1.14 1 2.62 1.35 3.79 2.28h0a25.63 25.63 0 0 0 5.14 3c2.82 1.31 2.84 2.58.86 4.53h0c-.85 1.39-2.19 2.39-3 3.79h0c-.85 1.39-2.19 2.39-3 3.79h0l-8.27 10.53h0c-.85 1.39-2.19 2.38-3 3.78h0c-.85 1.38-2.19 2.38-3 3.78h0c-.85 1.38-2.19 2.38-3 3.78h0c-1 1.26-1.78 2.85-3.78 1.51h0l-16.53-9.77h0l-12.78-7.53h0c-1.14-1-2.62-1.35-3.78-2.28h0l-12.78-7.52h0l-16.53-9.77h0l-12.78-7.52h0c-1.14-1-2.62-1.35-3.78-2.28h0c-3-1.88-6.09-3.73-9.2-5.47-2.26-1.25-2.7-2.16-.67-3.86a7.08 7.08 0 0 0 .87-1.2h0c.85-1.39 2.19-2.39 3-3.79h0c.85-1.39 2.19-2.39 3-3.79h0c.85-1.39 2.19-2.39 3-3.79h0c.85-1.39 2.19-2.38 3-3.78h0c.62-1.27 1.75-2.11 2.21-3.43z" fill="#2ea08b"/><path d="M506.35 115.75a1 1 0 0 1-.06.36c-2 3.43-1.6 6 2.2 8 2.07 1.12 2.92 3.53 2.81 6a19 19 0 0 1-3.63 8.47q-23.16 32.93-46.18 66L404 286.89l-39.27 56.17-1.76 2.43c-5.08 6.21-10 7.13-16.63 2.63q-47.21-31.85-94.34-63.78c-3.57-2.42-3.74-4.36-1-7.53 2.16.1 3.63 1.58 5.27 2.67q43.93 29.38 87.73 59l3.44 2.27c5.36 3.32 8.84 2.84 12.68-2.13 5.12-6.63 9.71-13.64 14.5-20.5l64.17-91.87 57.49-82.36c2.42-3.5 5-6.84 7.51-10.29a8.43 8.43 0 0 0 2-5.9c-.13-1.12-.25-2.44-1.56-2.72s-1.64 1-2.19 1.74L485 151q-34.18 48.79-68.29 97.67-26.31 37.62-52.55 75.3c-1.35 1.95-2.69 3.92-4.22 5.73-4.33 5.17-8.85 6-14.48 2.24-13.76-9.1-27.17-18.7-40.78-28l-45.94-31.74a7.27 7.27 0 0 0-4.08-1.71 6.19 6.19 0 0 1-4-1.76c-4.81-3.95-10.28-7-15.3-10.61a11.22 11.22 0 0 0-3.1-1.26 3.24 3.24 0 0 1-1.72-2.06 4.34 4.34 0 0 0-1.89-3.45l-14.75-10.19c-2-1.41-3.18-.88-3.39 1.68-.3 3.4.6 6.4 3.67 8.43l12.12 8.08c1 .67 2.25 1.12 2.89 2.3.11 3.93-1.12 4.8-4.38 3.14a12.24 12.24 0 0 0-3.3-1.58c-4.38-1.9-8.22-4.73-12-7.51-5.56-4.07-7-15.7-3.11-21.27a3.55 3.55 0 0 1 2.12-1.42q14.8 10.14 29.59 20.28 53.88 37 107.77 74c5.78 4 8.91 3.31 13.11-2.7l43-61.76q48.38-69.23 96.77-138.43c2.21-3.16 4.94-5.91 6.75-9.41.63-1.21.35.64.84.76z" fill="#202121"/><path d="M275.26 139.16c2-6.34 5.36-11.08 12.67-11.77 3.09-.29 6.13-1.4 9.21-1.48 10.84-.3 18.83-5.65 25.43-13.69.62-.15 1-.09.64.69a28.08 28.08 0 0 1-12.91 11.51 36.23 36.23 0 0 0-11.3 8.15c-7.92 8-17.06 14.51-26.67 20.35-.84.51-1.64 1.11-2.45 1.67-.94 1.18-2.05 1.86-3.61 1.25l8.16-10.51c1.54-4.94 5.8-7.89 8.16-11.39-1.07.95-2.18 2.8-3.83 4.12-1 .8-1.89 2.15-3.5 1.1z" fill="#231f20"/><path d="M266.28 155.84l3.61-1.24c-9.15 9.11-16.42 19.78-24.5 29.78l-30.11 37.89c-2.23 2.82-4.93 5.27-6.67 8.49-.43.79-1.09 1.43-.06 2.2-5.74 8-3.86 18.23 4.37 23.6l8.75 5.64a23.07 23.07 0 0 1 5.21 3.44c1.74 1.44 2.08 3.15-.26 4.52-.86-3.65-5-2.84-6.9-5-3.21-3.16-7.69-4.45-11-7.47-3.1-2.8-5.59-6-6.29-10.21 0-1.87 0-3.74-.12-5.6a14 14 0 0 1 4.28-11.15c1.39-1.38 2.88-2.79 3.43-4.81.22-.31.35-.69.74-.85 5.78-5.85 10.41-12.64 15.54-19l39.98-50.23z" fill="#429787"/><path d="M325.94 87.42a29.64 29.64 0 0 1-11 6.87c-2.37.8-4.4.63-6-1.44 2.42-3.44 6.15-4.82 9.82-6.29l3.82-1.45c1.17.64 4.08-1.21 3.36 2.31z" fill="#f7f3ec"/><path d="M401.17 162.37a71.91 71.91 0 0 1 16.53 9.77 73 73 0 0 1-16.53-9.77z" fill="#0a5141"/><path d="M355.42 135.38a72.63 72.63 0 0 1 16.58 9.77 73.06 73.06 0 0 1-16.58-9.77z" fill="#0a5243"/><path d="M330 115.13c-2.28 3-.75 4.53 2.05 6 2.46 1.25 5.11 2.32 6.95 4.57-4.14-1.09-7.65-3.57-10.91-6.06-2.8-2.15.62-3.22 1.91-4.51z" fill="#0b5142"/><path d="M376.45 97.17a44.53 44.53 0 0 1-12.78-7.53 44.4 44.4 0 0 1 12.78 7.53z" fill="#095141"/><path d="M405.7 114.41a44.28 44.28 0 0 1-12.78-7.52 44.87 44.87 0 0 1 12.78 7.52z" fill="#0a5242"/><path d="M388.42 154.87a44.17 44.17 0 0 1 12.78 7.53 44.9 44.9 0 0 1-12.78-7.53z" fill="#0a5141"/><path d="M342.68 127.88a44.15 44.15 0 0 1 12.78 7.52 44.73 44.73 0 0 1-12.78-7.52z" fill="#0a5142"/><path d="M422.2 124.16a45 45 0 0 1-12.78-7.52 44.05 44.05 0 0 1 12.78 7.52z" fill="#0a5242"/><path d="M393,106.91a45.1,45.1,0,0,1-12.78-7.52A44.15,44.15,0,0,1,393,106.91Z" fill="#0a5142"/><path d="M371.92 145.13a44.73 44.73 0 0 1 12.78 7.52 44.5 44.5 0 0 1-12.78-7.52z" fill="#0a5243"/><path d="M430.42 159.4a35.55 35.55 0 0 1 8.27-10.53 36.17 36.17 0 0 1-8.27 10.53z" fill="#0a5142"/><path d="M363.71 89.67c-2.56-.31-4.37-2.11-6.5-3.27-1.32-.72-2.54-1.47-4-.48.22-1.35.71-2.67 2.33-1.65 2.74 1.73 5.93 2.85 8.17 5.4z" fill="#0a5243"/><path d="M444.66 141.41c1.17-2.06.77-3.33-1.53-4.41-1.59-.75-3.55-1.28-4.47-3.12 2.87.47 5.19 2.22 7.34 3.88 2.3 1.76-.06 2.7-1.34 3.65z" fill="#0b5041"/><path d="M434.94 131.66a22.55 22.55 0 0 1-9-5.28 22 22 0 0 1 9 5.28z" fill="#0a5141"/><path d="M323.21 112.91l-.64-.69 3.6-6.45c.07 2.82-1.34 5.02-2.96 7.14z" fill="#3e4e39"/><path d="M417.66 172.12c1.64.45 2.54-1 3.78-1.51-1.33 3.2-1.71 3.39-3.78 1.51z" fill="#074e3f"/><path d="M438.66 148.91a5.4 5.4 0 0 1 3-3.79 5.14 5.14 0 0 1-3 3.79z" fill="#094f3f"/><path d="M441.66 145.16a5.35 5.35 0 0 1 3-3.79 5.24 5.24 0 0 1-3 3.79z" fill="#094e40"/><path d="M342 100.14a5.47 5.47 0 0 1-3 3.78 5.11 5.11 0 0 1 3-3.78z" fill="#084f3f"/><path d="M421.42 170.65a5.3 5.3 0 0 1 3-3.78 5.28 5.28 0 0 1-3 3.78z" fill="#094f3f"/><path d="M424.42 166.9a5.22 5.22 0 0 1 3-3.78 5.32 5.32 0 0 1-3 3.78z" fill="#094e3f"/><path d="M336 107.63a5.29 5.29 0 0 1-3 3.79 5.27 5.27 0 0 1 3-3.79z" fill="#094f40"/><path d="M339 103.88a5.4 5.4 0 0 1-3 3.79 5.18 5.18 0 0 1 3-3.79z" fill="#094f3f"/><path d="M427.42 163.15a5.11 5.11 0 0 1 3-3.78 5.41 5.41 0 0 1-3 3.78z" fill="#094e40"/><path d="M353.2 85.89a5.11 5.11 0 0 1-3 3.78 5.39 5.39 0 0 1 3-3.78z" fill="#094f40"/><path d="M333 111.38a5.22 5.22 0 0 1-3 3.79 5.4 5.4 0 0 1 3-3.79z" fill="#095040"/><path d="M384.67 152.62a4.52 4.52 0 0 1 3.78 2.28 4.62 4.62 0 0 1-3.78-2.28z" fill="#084f40"/><path d="M438.7 133.91a4.57 4.57 0 0 1-3.79-2.28 4.59 4.59 0 0 1 3.79 2.28zm-99.77-8.28a4.58 4.58 0 0 1 3.78 2.28 4.57 4.57 0 0 1-3.78-2.28z" fill="#084e3e"/><path d="M426 126.41a4.65 4.65 0 0 1-3.79-2.28 4.55 4.55 0 0 1 3.79 2.28z" fill="#074e3e"/><path d="M380.21 99.42a4.61 4.61 0 0 1-3.79-2.28 4.56 4.56 0 0 1 3.79 2.28z" fill="#074e40"/><path d="M409.45 116.66a4.58 4.58 0 0 1-3.79-2.27 4.56 4.56 0 0 1 3.79 2.27z" fill="#074f3f"/><path d="M344.22 96.84a3.5 3.5 0 0 1-2.29 3.33c.07-1.6 1.27-2.39 2.29-3.33z" fill="#064d3d"/><path d="M347.22 93.1a3.29 3.29 0 0 1-2.63 3.33 7.8 7.8 0 0 1 2.63-3.33z" fill="#064d3e"/><path d="M350.21 89.64a3.32 3.32 0 0 1-2.62 3c.59-1.22 1.21-2.45 2.62-3z" fill="#064c3d"/><path d="M635.85 337.72c-9.19-.6-18.37-1.49-27.61-1.4-8.68.08-17.16 1.05-25.29 4.3-9.14 3.65-18.7 2.85-28.13 2.24-15.41-1-30.76-2.78-46.09-4.8-16.25-2.15-32-6.5-47.88-10.25-2.16-.51-4.28-1.19-6.42-1.8-3.31-1.56-6.95-2.2-10.3-3.66-8.33-4.2-15.09-9.85-17.67-19.3-.41-1.49-1.1-3.11.32-4.53 2.05-.29 4 .46 5.93.79q20.34 4.29 40.81 7.79a7.67 7.67 0 0 0 3.3.26 2 2 0 0 1 1.69.55 1.37 1.37 0 0 0 2.19-.5c.42-.78-.52-1.27-1.12-1.63-4.32-2.61-9.15-3.9-13.89-5.45l-38.31-12.65a6.66 6.66 0 0 1-.09-2.27c1.58-5.91 4.87-11.14 6.68-17a2.54 2.54 0 0 1 2.56-1.81l28.56 6.76a16.24 16.24 0 0 0 4.73.76c2.73-.16 4.92 1.54 7.21 2l-6.51-2.29c-6.15-2.78-12.61-4.7-18.93-7-4.9-1.78-10-3.05-14.46-6a2.14 2.14 0 0 1 .13-2.12c3.13-6.16 6.61-12.13 10.2-18a4.32 4.32 0 0 1 1.89-1.72c4.83-.48 9.07 1.83 13.56 2.92 3.33.81 6.48 2.35 10 2.33 4.68.54 9.08 2.49 14.29 2.95-.84-.81-1.71-1-2.16-1.63-2.29-2-5.36-1.66-8-2.72-2.1-.69-4.27-1.14-6.4-1.76-5.86-1.87-12-2.81-17.61-5.52-1.21-1.36-.42-2.61.35-3.72a117.27 117.27 0 0 1 17-19.74 31.51 31.51 0 0 1 9.55 2.28c1.75-.07 3.35.74 5.07.89a100 100 0 0 0 12.1 2.64c6.37 1.24 12.85 1.4 19.29 2 9.19.81 18.13-1 27-3 3.11-.71 3.21-3.52 2.9-6.07-.36-3-2.24-5.2-4-7.48-3.81-4.89-8.17-9.36-11.45-14.67-1.52-2.44-3.77-4.18-5.8-6.12l-.18-.08v-.2c-.36-1.47-1.87-2.3-2.13-3.83-1.63-3.37-2.92-6.88-4.51-10.27a24.64 24.64 0 0 1-1.14-3.94 5.32 5.32 0 0 0-.22-3.32 5.63 5.63 0 0 1-.31-.9c-.09-3.5-.15-7 1.44-10.26 1.91-3.92 5.66-5.17 9.33-2.87s6.86 5 8.88 8.92c3.51 6.77 9.38 11.23 15.29 15.62a15.91 15.91 0 0 1 4.12 3.72 74.36 74.36 0 0 0 23.45 22.17 41.27 41.27 0 0 1 16.31 17.53 15.17 15.17 0 0 0 3.59 3.82l.11.26c1 2.48 3.23 3.86 5 5.65a.28.28 0 0 1 .22.43c1 2.31 3.24 3.56 4.61 5.55h0c1.11 2.1 3.18 3.38 4.52 5.28h0a12.63 12.63 0 0 0 3.49 3.79.28.28 0 0 1 .21.42c.3 1.86 2.22 2.51 3 4 5.05 3.21 10.9 4.25 16.47 6-.57.59-.2 1.16.08 1.69 5.35 10.07 7 20.9 6.78 32.16-.09 4.47.73 8.91.67 13.41-.18 13.31-1 26.43-8.82 37.94-.72 1.1-.3 1.74.55 2.46z" fill="#faa27d"/><path d="M251.12 277.2c-1.93 2.9-1.06 4.66 1.81 6.59q46.79 31.44 93.42 63.15c7.2 4.88 11.35 4.19 16.65-3.33q22.13-31.38 44.05-62.9Q457.18 209 507.31 137.36a45.22 45.22 0 0 0 4-7.16c.75 5.46-2.26 9.59-5.06 13.67l-25.9 37.19-19.1 27.73a3.44 3.44 0 0 1-.24 1.55c-4.81 7.42-10.3 14.37-15 21.89-1 1.4-2.32 2.53-3.14 4.07-4.74 7.3-10.08 14.19-14.84 21.49a46.13 46.13 0 0 0-3.89 5.42l-11.08 15.45c-.93 1.3-1.65 2.82-3.33 3.4q-23.43 33.69-46.85 67.37c-4.93 7.1-7.51 7.6-14.69 2.69q-47.61-32.58-95.25-65.12c-1.22-.83-2.3-2-3.88-2.17-1.95-3.25-1-6.49.13-9.68 1.6-4.7 1.56-5.19-2.52-8l-9.9-6.71c-2.74-1.77-3.57-1.41-4.42 1.79-1.62 6.06-1.61 12.34-2.14 18.53-.86 9.92-.12 19.87-.4 30 2-.7 2.75-2.39 4.3-2.85 1-.31 2.66-1.73 2.75.94-3.64 1.54-5.48 5.26-8.79 7.2-1.53-1.41-1.57-3.26-1.62-5.15-.26-11.23.33-22.44.48-33.66.09-6.07 1.69-12 2.81-18a3.5 3.5 0 0 1 2.91-3 5.73 5.73 0 0 1 4.06 1.51c5 3.84 10.7 6.61 15.38 10.87a3.64 3.64 0 0 0 2.66 1.09c.02 3.07-2.02 5.17-3.63 7.49z" fill="#3a9a89"/><path d="M479.93 214.7l-9.75-2c-2.28.29-4.4 0-6.13-1.69-.17-.72.25-1 .85-1.14 5 1.47 10.25 2 15 4.24.27.15.35.29.26.42s-.16.17-.23.17z" fill="#6c4033"/><path d="M517.7 163.76l.88 3.91a13.53 13.53 0 0 1 1.85 5.38.79.79 0 0 1-1.08-.08c-1.71-4.14-3.58-8.25-2.73-12.94a.66.66 0 0 0 .57.14c1.16 1.06.4 2.39.51 3.59z" fill="#756057"/><path d="M497.14 218c-4.3.66-8.14-1.15-12.12-2.21.07-.5.52-.52.85-.69 3.78.81 7.66 1.3 11.27 2.9z" fill="#7b5b4d"/><path d="M525.07 182.57c2.92 1.1 4.61 3.38 5.8 6.12-2.46-1.55-4.13-3.83-5.8-6.12z" fill="#66473a"/><path d="M604.15 224.59a7.57 7.57 0 0 1-5-5.65 27.51 27.51 0 0 1 5 5.65z" fill="#614236"/><path d="M613.47 235.82a8.43 8.43 0 0 1-4.52-5.28 11 11 0 0 1 4.52 5.28z" fill="#5f3a2c"/><path d="M609 230.57a8.29 8.29 0 0 1-4.61-5.55c1.85 1.57 3.66 3.19 4.61 5.55z" fill="#5d3b2d"/><path d="M485.87 215.05l-.85.69-5.09-1v-.63c2.07-.39 3.98.55 5.94.94z" fill="#624033"/><path d="M523.37 178.49c.15 1.42 2.06 2.11 1.56 3.8a11.57 11.57 0 0 1-3.27-4.69.63.63 0 0 1 .65-.51 1.74 1.74 0 0 1 1.06 1.4z" fill="#604e46"/><path d="M599 218.68c-2.29-.25-3.21-1.78-3.59-3.82a10.44 10.44 0 0 1 3.59 3.82z" fill="#69483c"/><path d="M617 239.59c-2.2-.32-3.13-1.8-3.49-3.79 1.71.71 2.43 2.38 3.49 3.79z" fill="#633e30"/><path d="M620.15 244c-1.56-.92-3.17-1.8-3-4a7.05 7.05 0 0 1 3 4z" fill="#6a4636"/><path d="M464.9 209.83l-.83.59c-1.41 1-2.6 1-3.41-.75l.58-.88z" fill="#5e4036"/><path d="M519.35 173l.86-.07c1.11 1.23 2.13 2.5 1.87 4.32a3.79 3.79 0 0 1-.42.38 11.55 11.55 0 0 1-2.31-4.63z" fill="#635851"/><path d="M208.66 137.72l-11.46 7.81c2.93-3.9 6.93-6.24 11.46-7.81z" fill="#68554b"/><path d="M228.83 125.77c-2.51 2.69-5.78 4-9.17 5.09a23.83 23.83 0 0 1 9.17-5.09z" fill="#6b4f44"/><path d="M179.93 157.82a10 10 0 0 1-6.92 4.55 25.3 25.3 0 0 1 6.92-4.55z" fill="#6b5449"/><path d="M303.05 95c-.45 1.65.08 3.27.4 5.16-2.21-1.1-1.8-3-2.17-4.52.37-.86 1.04-.85 1.77-.64z" fill="#8a5039"/><path d="M273.74,103.9a9.49,9.49,0,0,0,1.17,5.69c-2.83-1.91-2.39-3.72-1.91-5.54Z" fill="#7e4027"/><path d="M219.69 130.83a7.52 7.52 0 0 1-5.28 3 8.47 8.47 0 0 1 5.28-3z" fill="#675248"/><path d="M214.45 133.83a4.32 4.32 0 0 1-3.88 2.37 5.35 5.35 0 0 1 3.88-2.37z" fill="#62524a"/><path d="M115.54 169.17c-1.66 1-3.47.61-5.25.55 1.71-1.09 3.5-.41 5.25-.55z" fill="#e5eff8"/><path d="M195.3 146.64c-.88 1.13-1.74 2.27-3.39 2.21a3.58 3.58 0 0 1 3.39-2.21z" fill="#634b41"/><path d="M191.94 148.82a3.17 3.17 0 0 1-3 2.28 3.75 3.75 0 0 1 3-2.28z" fill="#614539"/><path d="M185.94 153.32a3 3 0 0 1-3 2.28 3.8 3.8 0 0 1 3-2.28z" fill="#604136"/><path d="M182.94 155.57a3 3 0 0 1-3 2.28 3.89 3.89 0 0 1 3-2.28z" fill="#604337"/><path d="M188.94 151.07a3.14 3.14 0 0 1-3 2.28 3.75 3.75 0 0 1 3-2.28z" fill="#5f4236"/><path d="M202.42 247.47c3.52 7.58 9.91 12.21 16.78 16.35.4.24 1.32.52.52 1.33a88.11 88.11 0 0 1-16.59-10c-5.43-4.16-10.78-5.14-17.73-2.76-6.58 2.26-14 2.05-21 3l-49.65 6.87c-2 .28-2.89 1-3 3.26a55.1 55.1 0 0 1-4.46 19.95c-1.28 2.8-2.5 5.7-5.28 7.46L99.79 289a4 4 0 0 1-2-2.56 87.37 87.37 0 0 1-5.21-24 4.27 4.27 0 0 1 .59-3.22l.67-.66c21.58-3.81 43.2-7.41 64.93-10.28l31.9-3.93c4.33-.51 7.97 1.55 11.75 3.12z" fill="#231f20"/><path d="M275.26 139.16c4-2.08 6.19-6.32 10.91-9.25-3.67 6.15-7.82 10.7-11.73 15.42-2.3-2.4 1.22-4.03.82-6.17z" fill="#f7f6f5"/><path d="M205.14 199.36c-7.24 7.27-20.4 10.46-26.44 6 10.47 3.87 17.85-2.12 26.44-6z" fill="#83462d"/><path d="M202.43 222.52L190 219.45c4.4-.26 8.46 1 12.5 2.28.2.18.27.36.19.53s-.19.26-.26.26z" fill="#733720"/><path d="M202.43 222.52v-.79a40.71 40.71 0 0 1 8.29 3.33l-.74.85z" fill="#703e27"/><path d="M179.29 217.21c3.57.3 6.2.37 8.62 1.61-2.58-.35-5.32.28-8.62-1.61z" fill="#6d3119"/><path d="M218.78 189.17l4.94-4.69c-.75 2.47-2.6 3.84-4.55 5.11-.38.09-.52-.03-.39-.42z" fill="#6f331d"/><path d="M215.45 192.68a11.93 11.93 0 0 1-6.23 3.67l5.83-4.14c.44-.11.58.04.4.47z" fill="#723620"/><path d="M215.05 192.21a12.88 12.88 0 0 1 3.73-3l.39.42a12.44 12.44 0 0 1-3.72 3.09 3.12 3.12 0 0 0-.4-.51z" fill="#6f331d"/><path d="M93.16 259.21c1.27 10.13 2.84 20.21 6.63 29.79.53 2.22-.29 3.41-2.63 3.6l-11.13 1c-10.28.66-20.53 1.64-30.76 2.87s-20.26 2-30.36 3.2c-6.65.79-13.32 1.67-19.85 3.11-3.65.81-3.59-.75-3.58-3.33v-43.84V175c0-5.12 0-5.13 5.25-5.13 16.09 0 32.17-.68 48.25-1l28.77-.56c3.6-.17 7.15-.91 10.79-.72 1.87.09 2.92.1 2.46 2.72a398.37 398.37 0 0 0-5 45.89c-.66 11.61-.28 23.18-.51 34.77a15.71 15.71 0 0 0 1.67 8.24z" fill="#6791fa"/><path d="M236.86 308.86c-1.45-1.76-2.5-.11-3.29.63a37.43 37.43 0 0 0-3.45 4.18c-.91-.58-1.27-.7-1.27-.82.12-11.44-.69-22.88.49-34.34.62-6 .7-12.11 2.22-18.05.73-2.89 1.94-3.64 4.41-2l13.84 9.46c1.34.94 2.86 2.3 1.92 4a24.34 24.34 0 0 0-2.67 12.84c-1.75 15-.94 30-.76 45.25z" fill="#2ea08b"/><path d="M232.65 256.21c-2.66 2.83-3 6.53-3.41 10.05a330 330 0 0 0-1.82 46.52 18.85 18.85 0 0 0 .65 3.28c-.4.43-.84 1.26-1.18 1.22-1-.12-.67-1.16-.7-1.78l-.75-22.31a159.81 159.81 0 0 1 1.18-23c1.19-2.58.38-4.38-2.06-5.71a22 22 0 0 1-2.89-2.25c1.26-.22 2 .77 3 1.2s1.79 2.12 3.21 1.14c1.21-.84.75-2.24.7-3.45-1-2.88-.26-5.11 2.59-6.47z" fill="#142623"/><path d="M409.76,282.06a201.27,201.27,0,0,1,13.91-19.39c1.26-.9,2.59-.66,3.95-.31q19.5,5.06,38.94,10.33c1.38.37,3,.64,3.63,2.29-3.56.9-6.7-1-10-1.67-8-1.72-16-3.46-23.77-5.92a33.6,33.6,0,0,1-8.63-1.57,4.15,4.15,0,0,0-5.11,1.69c-3.29,4.24-6.13,8.77-9.25,13.34,4.82,2.19,10.06,2.83,14.64,5.25a1.74,1.74,0,0,1-.72,1.58Z" fill="#cd7c63"/><path d="M444.64 321.4c3 2 7 2.11 9.79 4.61-13.48-3.46-27.18-6.22-39.76-12.51a17.78 17.78 0 0 1-5.64-4.26c-4.13-4.8-2.54-10.68 3.48-12.74 3.69-1.26 7.41-.61 11.07.12 3.29.65 6.54 1.54 9.8 2.32.17.65 0 1-.71.72l-5.94-.77c-2.66.47-5.17-.53-7.75-.86a10.29 10.29 0 0 0-5.5.57c-5 2.09-5.67 6.17-1.73 9.84s8.7 5.7 13.71 7.38c5.9 2 12.09 3.1 17.77 5.75a1.32 1.32 0 0 0 1.41-.17z" fill="#d47e63"/><path d="M432.67 299.66l.71-.72 43.44 8.42c-2.22 1.32-4.38.07-6.49-.31-12.59-2.29-25.26-4.17-37.66-7.39z" fill="#d7977e"/><path d="M394.3,131.79a161.75,161.75,0,0,1-19.49-11.24l.25-.28a165.65,165.65,0,0,1,19.52,11.21Z" fill="#0a5242"/><path d="M399.83 134.49c6.66 3.09 12.76 7.15 18.94 11.07a137.59 137.59 0 0 1-19.23-10.74zm-9.02-17.23a94.26 94.26 0 0 1 15 8.21l-.29.33a92.12 92.12 0 0 1-15-8.27z" fill="#0a5243"/><path d="M383.8,113.79c-4.63-1.77-8.69-4.55-12.79-7.29a68.85,68.85,0,0,1,13.06,7Z" fill="#0a5343"/><path d="M385.58,139c4.65,1.81,8.68,4.73,12.89,7.35a63.44,63.44,0,0,1-13.18-7Z" fill="#0a5242"/><path d="M364.32,114.52a28,28,0,0,1-8.29-5,25.84,25.84,0,0,1,8.54,4.69Z" fill="#0a5343"/><g fill="#095141"><path d="M405.83 125.47a21.48 21.48 0 0 1 6.75 3.77l-.27.31a20.11 20.11 0 0 1-6.77-3.75zm-32.51 7.05a19 19 0 0 1-6.77-3.72l.26-.3a19 19 0 0 1 6.74 3.77zm10.75-19.04a19.44 19.44 0 0 1 6.74 3.78l-.24.27a19.4 19.4 0 0 1-6.77-3.74 2.61 2.61 0 0 0 .27-.31zm-5.26 21.78a19.09 19.09 0 0 1 6.76 3.73l-.28.32a20.33 20.33 0 0 1-6.72-3.79z"/><path d="M366.55 128.8a15.67 15.67 0 0 1-6-3.59c2.25.76 4.51 1.52 6.28 3.3-.11.09-.19.19-.28.29z"/></g><path d="M369.58 117.52a11.67 11.67 0 0 1-5.26-3l.25-.28a12.18 12.18 0 0 1 5.24 3zm8.99 18a11.64 11.64 0 0 1-5.25-3l.23-.25a11.75 11.75 0 0 1 5.26 3z" fill="#095040"/><path d="M399.54,134.82a13.53,13.53,0,0,1-5.24-3,2.61,2.61,0,0,0,.27-.31,13.25,13.25,0,0,1,5.26,3Z" fill="#084f40"/><path d="M374.81 120.55a12.06 12.06 0 0 1-5.23-3l.23-.26a11.84 11.84 0 0 1 5.25 3 3.33 3.33 0 0 0-.25.26z" fill="#084f41"/><path d="M412.58,129.24a3.83,3.83,0,0,1,2.82,1.85,3.73,3.73,0,0,1-3.09-1.54Z" fill="#085243"/><path d="M251.12 277.2c.31-2.95 1.92-5.26 3.63-7.53 1.79-1.6 2.72.36 3.75 1.07q42.12 29 84.15 58.09c9.73 6.72 12.49 6.27 19.37-3.56q37-52.95 74-106 33.45-47.91 66.89-95.84a9 9 0 0 1 .72-.79c4.44 3.43 4.78 6 1.18 11.15l-22.88 32.46Q423.44 249.95 365 333.62c-1.5 2.15-3 4.3-4.72 6.29-4.2 4.9-7.65 5.43-13.07 1.83l-33.31-22.33z" fill="#fdfefe"/><path d="M231.18 254.62a10.87 10.87 0 0 0-2.59 6.47c-1.18.71-1.85-.32-2.61-.82q-6.21-4.11-12.38-8.31a10.11 10.11 0 0 1-3.54-11.85c.6-1.54 1.2-2.19 2.9-1 5.86 4.2 11.76 8.35 17.79 12.29 1.77 1.19 1.25 2.04.43 3.22z" fill="#fdfdfd"/><path d="M444.64 321.4a1.79 1.79 0 0 1-2 .58c-8.37-2.65-17-4.36-25.07-8.12-3.13-1.47-5.49-3.82-8.09-5.87-2.14-1.69-2.11-5.72-.24-7.76 2.61-2.86 5.87-4.21 9.71-3.3 2.61.62 5.49.23 7.81 2 1.24 11.23 8.48 17.69 17.88 22.47zm-16.54-35.3c-5.24-.05-9.76-2.75-14.66-4.05-1.31-.34-1.34-1-.59-2.18 3.3-5.12 6.76-10.12 10.48-14.94.6-.77 1.1-1.22 2.16-.84 3.59 1.31 7.54 1.42 11 3.3-.63.07-1.28.21-1.44.92-1.49 6.26-5.27 11.62-6.95 17.79z" fill="#e36f51"/><path d="M460.66 209.67a6.15 6.15 0 0 0 3.41.75l6.11 2.24c-2.16 4.3-6.25 7-9 10.77s-6.15 7.15-8.26 11.43c-1 1.06-2.12.39-3.21.33-1.7-.68-3.93-.61-4.44-3 3.33-6.63 8.21-12.25 12.26-18.41.91-1.46 2.07-2.78 3.13-4.11zm-33.25 47.9a193 193 0 0 1 15.16-21.82c3-1.31 5.05.63 7.28 2 .63.91 0 1.39-.65 1.84l-12 20.68c-.4 1.07-1.46.51-2.15.89-2.86-.51-5.95-.57-7.64-3.59z" fill="#e27052"/><path d="M427.41 257.57l8.1 3.06c9.06 2.95 17.95 6.38 26.95 9.5a77.12 77.12 0 0 1 8.37 3 13.52 13.52 0 0 1 7.48 3.88l-8.12-2c-15.39-4.53-30.95-8.42-46.52-12.31a11 11 0 0 1 3.74-5.13z" fill="#fdfaf7"/><path d="M449.9 238.11c-2.65-.15-4.63-2.37-7.33-2.36a4.93 4.93 0 0 1 2.67-3.59l4.78 2.16c6.61 2.61 13.54 4.17 20.34 6.15 2.61.64 5.17 1.48 7.75 2.27 2.36.85 5.08.62 7.13 2.39 1.3 1.05 4.65.11 4 2.66-.54 2-3 .45-4.6.12-3.87-.81-7.7-1.85-11.54-2.8-5.54-.61-10.6-3-15.91-4.42-2.49-.69-5.12-1.03-7.29-2.58z" fill="#fcf9f5"/><path d="M470.83 273.12c-9.29-2.28-18.1-6-27.09-9.14-2.78-1-5.7-1.7-8.23-3.35.41-.89 1.12-.29 1.7-.34 9.77 4 19.85 7.24 29.8 10.8 1.34.48 2.99.47 3.82 2.03z" fill="#6d4c40"/><path d="M449.9 238.11c7.88 1.82 15.43 4.71 23.17 7-3.62 1-6.64-1.22-9.91-2-4.67-1.09-9.11-3.13-14-3.53.27-.48.51-.97.74-1.47z" fill="#cf8a71"/><path d="M523.06,315.37a57.46,57.46,0,0,1,20.33-5.78Z" fill="#7f422a"/><path d="M571.46 307.56c-8.68.27-17.24 0-25.72 1.46 8.51-2.61 17.2-2.02 25.72-1.46z" fill="#70321a"/><path d="M470.21 240.92l-17.86-5.06c-.91-.26-2-.36-2.33-1.54l2.87.54 18.1 5.47a1.06 1.06 0 0 1-.78.59z" fill="#725246"/><path d="M584.43 281.4l7.24 3.8c3.07 1.29 6.24 2.59 9.68.75-3.63 3.19-10 1.59-17.36-4.11-.11-.4.01-.56.44-.44z" fill="#793c24"/><path d="M575.45,275.19a47.23,47.23,0,0,1-8.36-9.07Z" fill="#71351f"/><path d="M522.08 177.22q-.95-2.16-1.87-4.32l-1.63-5.23c2.44 3.23 3.6 7 4.79 10.82z" fill="#e3b5a0"/><path d="M485.24 245.13l-7.57-1.91a.75.75 0 0 1 0-1.22l6.84 1.85c.49.15 1.76.15.73 1.28z" fill="#6d4739"/><path d="M477.66,242v1.22l-7.46-2.3.78-.59Z" fill="#654335"/><path d="M562.6 260.43l3.71 4.17a7.52 7.52 0 0 1-4.14-3.76c-.08-.37.07-.51.43-.41z" fill="#71351f"/><path d="M562.17,260.84l-3-3.45a5.28,5.28,0,0,1,3.41,3Z" fill="#71341f"/><path d="M580.93 279.58a7.4 7.4 0 0 1-3.32-3 7.24 7.24 0 0 1 3.71 2.63c.1.31-.03.46-.39.37z" fill="#6e321e"/><path d="M581.32,279.17l3.11,2.23a1.84,1.84,0,0,0-.44.44,7.54,7.54,0,0,1-3.06-2.26Z" fill="#6f321c"/><path d="M517.7 163.76l-.5-3.59c1.46 1.02 1.07 2.29.5 3.59z" fill="#e3b5a0"/></svg>